<svg width="44" height="43" viewBox="0 0 44 43" fill="none" xmlns="http://www.w3.org/2000/svg"> <path d="M24.6979 7.15088C23.9867 7.15088 23.3047 7.43339 22.8018 7.93626C22.299 8.43913 22.0165 9.12117 22.0165 9.83233C22.0165 10.5435 22.299 11.2255 22.8018 11.7284C23.3047 12.2313 23.9867 12.5138 24.6979 12.5138C25.4091 12.5138 26.0911 12.2313 26.594 11.7284C27.0968 11.2255 27.3794 10.5435 27.3794 9.83233C27.3794 9.12117 27.0968 8.43913 26.594 7.93626C26.0911 7.43339 25.4091 7.15088 24.6979 7.15088ZM24.0544 15.6779C21.9271 15.8567 16.1173 20.4866 16.1173 20.4866C15.7597 20.7548 15.867 20.7369 16.153 21.2374C16.439 21.7201 16.4033 21.7559 16.7429 21.5235C17.1005 21.2911 17.6904 20.9157 18.6736 20.3079C22.4634 17.8767 19.2814 23.4899 17.6546 32.9465C17.0111 37.6301 21.2299 35.2168 22.3204 34.5017C23.3929 33.8045 26.271 31.8202 26.557 31.6236C26.9503 31.3555 26.6643 31.1409 26.3604 30.694C26.1459 30.3901 25.9314 30.6047 25.9314 30.6047C24.7694 31.3733 22.6421 32.9822 22.3561 31.9633C22.0165 30.9443 24.1974 23.9547 25.3951 19.1459C25.5917 18.0018 26.128 15.4991 24.0544 15.6779Z" fill="black"/> </svg>