<svg width="41" height="41" viewBox="0 0 41 41" fill="none" xmlns="http://www.w3.org/2000/svg">
<path d="M27.4141 17.1964C29.2477 17.1964 30.734 15.7101 30.734 13.8765C30.734 12.043 29.2477 10.5566 27.4141 10.5566C25.5806 10.5566 24.0942 12.043 24.0942 13.8765C24.0942 15.7101 25.5806 17.1964 27.4141 17.1964Z" stroke="black" stroke-width="2.29839"/>
<path d="M4.1748 21.3462L7.08303 18.8015C7.81198 18.1642 8.75583 17.8277 9.72355 17.86C10.6913 17.8924 11.6105 18.2912 12.2953 18.9758L19.4164 26.097C19.969 26.6495 20.6988 26.9893 21.4773 27.0567C22.2559 27.1242 23.0332 26.9148 23.6725 26.4655L24.1689 26.1169C25.0911 25.4692 26.2058 25.1534 27.3308 25.2213C28.4557 25.2891 29.5244 25.7365 30.3621 26.4904L35.7138 31.3059" stroke="black" stroke-width="2.29839" stroke-linecap="round"/>
<path d="M37.3737 20.5165C37.3737 28.3415 37.3737 32.2539 34.9419 34.6841C32.5134 37.1159 28.5993 37.1159 20.7743 37.1159C12.9493 37.1159 9.03679 37.1159 6.60497 34.6841C4.1748 32.2556 4.1748 28.3415 4.1748 20.5165C4.1748 12.6915 4.1748 8.77898 6.60497 6.34715C9.03845 3.91699 12.9493 3.91699 20.7743 3.91699C28.5993 3.91699 32.5118 3.91699 34.9419 6.34715C36.5587 7.96394 37.0999 10.2364 37.2825 13.8767" stroke="black" stroke-width="2.29839" stroke-linecap="round"/>
</svg>
