<svg width="39" height="39" viewBox="0 0 39 39" fill="none" xmlns="http://www.w3.org/2000/svg">
<g clip-path="url(#clip0_46_123)">
<path fill-rule="evenodd" clip-rule="evenodd" d="M18.0805 1.16408C18.3669 0.88333 18.752 0.726074 19.1531 0.726074C19.5541 0.726074 19.9392 0.88333 20.2256 1.16408L37.4635 18.1211C37.7375 18.4089 37.889 18.7919 37.886 19.1892C37.883 19.5866 37.7257 19.9672 37.4474 20.2508C37.1691 20.5344 36.7915 20.6988 36.3943 20.7093C35.9971 20.7198 35.6113 20.5756 35.3184 20.3071L33.1988 18.2232V32.5192C33.1988 32.8579 33.0642 33.1826 32.8248 33.4221C32.5853 33.6616 32.2605 33.7961 31.9219 33.7961H6.38423C6.04558 33.7961 5.7208 33.6616 5.48134 33.4221C5.24187 33.1826 5.10735 32.8579 5.10735 32.5192V18.2232L2.98772 20.3071C2.84595 20.456 2.67566 20.5749 2.487 20.6566C2.29834 20.7383 2.09515 20.7812 1.88956 20.7828C1.68396 20.7843 1.48015 20.7445 1.29027 20.6656C1.10039 20.5868 0.928324 20.4705 0.784319 20.3238C0.640313 20.177 0.527314 20.0028 0.452052 19.8115C0.37679 19.6201 0.340804 19.4156 0.346238 19.2101C0.351673 19.0045 0.398416 18.8022 0.483683 18.6151C0.568951 18.428 0.690999 18.26 0.842558 18.1211L18.0805 1.16408ZM19.1531 4.40736L30.645 15.7103V31.2423H25.5375V22.3041C25.5375 21.9655 25.4029 21.6407 25.1635 21.4013C24.924 21.1618 24.5992 21.0273 24.2606 21.0273H16.5993C16.2606 21.0273 15.9359 21.1618 15.6964 21.4013C15.4569 21.6407 15.3224 21.9655 15.3224 22.3041V31.2423H7.66111V15.7103L19.1531 4.40736ZM17.8762 31.2423H22.9837V23.581H17.8762V31.2423Z" fill="black"/>
</g>
<defs>
<clipPath id="clip0_46_123">
<rect width="38.3065" height="38.3065" fill="white" transform="translate(0 0.59668)"/>
</clipPath>
</defs>
</svg>
