<svg width="53" height="53" viewBox="0 0 53 53" fill="none" xmlns="http://www.w3.org/2000/svg">
<path d="M16.0983 26.0484C16.0983 27.1998 15.6409 28.3041 14.8268 29.1183C14.0126 29.9324 12.9083 30.3898 11.7569 30.3898C10.6055 30.3898 9.50126 29.9324 8.68709 29.1183C7.87292 28.3041 7.41553 27.1998 7.41553 26.0484C7.41553 24.897 7.87292 23.7928 8.68709 22.9786C9.50126 22.1644 10.6055 21.707 11.7569 21.707C12.9083 21.707 14.0126 22.1644 14.8268 22.9786C15.6409 23.7928 16.0983 24.897 16.0983 26.0484ZM31.2932 26.0484C31.2932 27.1998 30.8358 28.3041 30.0217 29.1183C29.2075 29.9324 28.1032 30.3898 26.9518 30.3898C25.8004 30.3898 24.6962 29.9324 23.882 29.1183C23.0678 28.3041 22.6104 27.1998 22.6104 26.0484C22.6104 24.897 23.0678 23.7928 23.882 22.9786C24.6962 22.1644 25.8004 21.707 26.9518 21.707C28.1032 21.707 29.2075 22.1644 30.0217 22.9786C30.8358 23.7928 31.2932 24.897 31.2932 26.0484ZM46.4881 26.0484C46.4881 27.1998 46.0307 28.3041 45.2166 29.1183C44.4024 29.9324 43.2981 30.3898 42.1467 30.3898C40.9953 30.3898 39.8911 29.9324 39.0769 29.1183C38.2627 28.3041 37.8053 27.1998 37.8053 26.0484C37.8053 24.897 38.2627 23.7928 39.0769 22.9786C39.8911 22.1644 40.9953 21.707 42.1467 21.707C43.2981 21.707 44.4024 22.1644 45.2166 22.9786C46.0307 23.7928 46.4881 24.897 46.4881 26.0484Z" fill="black"/>
</svg>
