<svg width="38" height="38" viewBox="0 0 38 38" fill="none" xmlns="http://www.w3.org/2000/svg">
<path d="M6.85059 15.8293C6.85059 10.0942 6.85059 7.22591 8.633 5.44501C10.4154 3.66412 13.2822 3.6626 19.0173 3.6626H21.2985C27.0336 3.6626 29.9019 3.6626 31.6828 5.44501C33.4636 7.22743 33.4652 10.0942 33.4652 15.8293V21.9126C33.4652 27.6477 33.4652 30.516 31.6828 32.2969C29.9003 34.0777 27.0336 34.0793 21.2985 34.0793H19.0173C13.2822 34.0793 10.4139 34.0793 8.633 32.2969C6.85211 30.5144 6.85059 27.6477 6.85059 21.9126V15.8293Z" stroke="black" stroke-width="1.88793" stroke-linecap="round" stroke-linejoin="round"/>
<path d="M15.6724 18.8311C15.023 17.6996 14.7097 16.7764 14.5211 15.8396C14.2413 14.4556 14.8816 13.1021 15.9401 12.2383C16.3887 11.8733 16.9012 11.998 17.1659 12.474L17.7635 13.5462C18.2365 14.3948 18.4738 14.8206 18.4266 15.2708C18.381 15.721 18.0616 16.0875 17.4229 16.822L15.6724 18.8311ZM15.6724 18.8311C17.0413 21.1768 18.9933 23.1288 21.339 24.4977M21.339 24.4977C22.4705 25.1471 23.3937 25.4604 24.3305 25.649C25.7145 25.9288 27.068 25.2885 27.9318 24.23C28.2968 23.7814 28.1721 23.2689 27.6961 23.0042L26.6254 22.4065C25.7738 21.9336 25.3495 21.6963 24.8993 21.7435C24.4491 21.7891 24.0826 22.1085 23.348 22.7472L21.339 24.4977ZM8.3724 9.74561H4.57031M8.3724 18.8706H4.57031M8.3724 27.9956H4.57031" stroke="black" stroke-width="1.88793" stroke-linecap="round" stroke-linejoin="round"/>
</svg>
